<svg width="22" height="22" viewBox="0 0 22 22" fill="none" xmlns="http://www.w3.org/2000/svg">
<path d="M9.42432 1.7666L10.5083 0.682617C10.9673 0.223633 11.7095 0.223633 12.1636 0.682617L21.6558 10.1699C22.1147 10.6289 22.1147 11.3711 21.6558 11.8252L12.1636 21.3174C11.7046 21.7764 10.9624 21.7764 10.5083 21.3174L9.42432 20.2334C8.96045 19.7695 8.97021 19.0127 9.44385 18.5586L15.3276 12.9531H1.29443C0.64502 12.9531 0.122559 12.4307 0.122559 11.7813V10.2188C0.122559 9.56934 0.64502 9.04688 1.29443 9.04688H15.3276L9.44385 3.44141C8.96533 2.9873 8.95557 2.23047 9.42432 1.7666Z" fill="#1C1D1D"/>
</svg>
